<?xml version="1.0" standalone="no"?><!DOCTYPE svg PUBLIC "-//W3C//DTD SVG 1.1//EN" "http://www.w3.org/Graphics/SVG/1.1/DTD/svg11.dtd"><svg t="1571047948088" class="icon" viewBox="0 0 1245 1024" version="1.1" xmlns="http://www.w3.org/2000/svg" p-id="10802" xmlns:xlink="http://www.w3.org/1999/xlink" width="243.1640625" height="200"><defs><style type="text/css">@font-face { font-weight: 400; font-style: normal; font-family: Inter-Loom; src: url("https://cdn.loom.com/assets/fonts/inter/Inter-UI-Regular.woff2") format("woff2"); }
@font-face { font-weight: 400; font-style: italic; font-family: Inter-Loom; src: url("https://cdn.loom.com/assets/fonts/inter/Inter-UI-Italic.woff2") format("woff2"); }
@font-face { font-weight: 500; font-style: normal; font-family: Inter-Loom; src: url("https://cdn.loom.com/assets/fonts/inter/Inter-UI-Medium.woff2") format("woff2"); }
@font-face { font-weight: 500; font-style: italic; font-family: Inter-Loom; src: url("https://cdn.loom.com/assets/fonts/inter/Inter-UI-MediumItalic.woff2") format("woff2"); }
@font-face { font-weight: 700; font-style: normal; font-family: Inter-Loom; src: url("https://cdn.loom.com/assets/fonts/inter/Inter-UI-Bold.woff2") format("woff2"); }
@font-face { font-weight: 700; font-style: italic; font-family: Inter-Loom; src: url("https://cdn.loom.com/assets/fonts/inter/Inter-UI-BoldItalic.woff2") format("woff2"); }
@font-face { font-weight: 900; font-style: normal; font-family: Inter-Loom; src: url("https://cdn.loom.com/assets/fonts/inter/Inter-UI-Black.woff2") format("woff2"); }
@font-face { font-weight: 900; font-style: italic; font-family: Inter-Loom; src: url("https://cdn.loom.com/assets/fonts/inter/Inter-UI-BlackItalic.woff2") format("woff2"); }
</style></defs><path d="M134.385302 736.031497S575.937007 179.29239 959.895011 115.299389C511.944006 294.479791 0 1024 0 1024h499.145406s-6.3993-25.5972-38.3958-25.5972H63.993001s76.791601-89.590201 140.784601-147.183902c255.972003-12.7986 479.947506-38.3958 633.530708-255.972003 25.5972-51.194401-19.1979-44.795101-31.9965-44.795101 121.586701-51.194401 383.958005-243.173403 345.562204-339.162904-19.1979-19.1979-31.9965-6.3993-31.996501-6.3993s198.378302-127.986002 95.989502-185.579702-358.360804 31.9965-358.360805 31.9965 19.1979-38.3958-38.3958-38.3958C601.534207 32.108488 441.551705 179.29239 441.551705 179.29239s0-51.194401-31.9965-31.9965c-441.551705 275.169903-275.169903 588.735607-275.169903 588.735607z" p-id="10803" fill="#0a0a0a"></path></svg>